# xmcd CD database file
#
# Track frame offsets:
#	150
#	9497
#	22999
#	33295
#	42678
#	54883
#	70426
#	77992
#	90790
#	97570
#
# Disc length: 1512 seconds
#
# Revision: 0
# Processed by: cddbd v1.5.1PL0 Copyright (c) Steve Scherf et al.
# Submitted via: CDex 1.51
#
DISCID=6805e60a
DTITLE=Tony Bennett and Count Basie - Chicago
DYEAR=1900
DGENRE=Jazz
TTITLE0=Chicago
TTITLE1=I've Grown Accustomed to Her Face
TTITLE2=Anything Goes
TTITLE3=Jeepers Creepers
TTITLE4=Are You Havin' Any Fun
TTITLE5=Poor Little Rich Girl
TTITLE6=I Guess I'll Have to Change My Plans
TTITLE7=Life Is a Song
TTITLE8=With Plenty of Money and You
TTITLE9=Growing Pains
EXTD=
EXTT0=
EXTT1=
EXTT2=
EXTT3=
EXTT4=
EXTT5=
EXTT6=
EXTT7=
EXTT8=
EXTT9=
PLAYORDER=
